<?xml version="1.0" encoding="UTF-8" standalone="no"?>
<svg
   xmlns:dc="http://purl.org/dc/elements/1.1/"
   xmlns:cc="http://creativecommons.org/ns#"
   xmlns:rdf="http://www.w3.org/1999/02/22-rdf-syntax-ns#"
   xmlns:svg="http://www.w3.org/2000/svg"
   xmlns="http://www.w3.org/2000/svg"
   xmlns:sodipodi="http://sodipodi.sourceforge.net/DTD/sodipodi-0.dtd"
   xmlns:inkscape="http://www.inkscape.org/namespaces/inkscape"
   width="512.08575"
   height="142.46275"
   viewBox="0 0 135.48936 37.693271"
   version="1.1"
   id="svg8"
   inkscape:version="1.0.2 (e86c870879, 2021-01-15, custom)"
   sodipodi:docname="Bank Syariah Indonesia.svg">
  <defs
     id="defs2" />
  <sodipodi:namedview
     id="base"
     pagecolor="#ffffff"
     bordercolor="#666666"
     borderopacity="1.0"
     inkscape:pageopacity="0.0"
     inkscape:pageshadow="2"
     inkscape:zoom="1"
     inkscape:cx="313.59487"
     inkscape:cy="148.47558"
     inkscape:document-units="mm"
     inkscape:current-layer="layer1"
     inkscape:document-rotation="0"
     showgrid="false"
     showguides="false"
     inkscape:guide-bbox="true"
     units="px"
     inkscape:window-width="1366"
     inkscape:window-height="715"
     inkscape:window-x="-8"
     inkscape:window-y="-8"
     inkscape:window-maximized="1">
    <sodipodi:guide
       position="35.960068,10.6938"
       orientation="0,-1"
       id="guide845" />
    <sodipodi:guide
       position="44.415099,37.728911"
       orientation="0,-1"
       id="guide896" />
    <sodipodi:guide
       position="38.285882,41.605091"
       orientation="0,-1"
       id="guide909" />
    <sodipodi:guide
       position="38.285881,41.605091"
       orientation="1,0"
       id="guide911" />
    <sodipodi:guide
       position="42.98805,30.194741"
       orientation="0,-1"
       id="guide913" />
    <sodipodi:guide
       position="44.656176,9.2665"
       orientation="0,-1"
       id="guide1046" />
  </sodipodi:namedview>
  <metadata
     id="metadata5">
    <rdf:RDF>
      <cc:Work
         rdf:about="">
        <dc:format>image/svg+xml</dc:format>
        <dc:type
           rdf:resource="http://purl.org/dc/dcmitype/StillImage" />
        <dc:title></dc:title>
      </cc:Work>
    </rdf:RDF>
  </metadata>
  <g
     inkscape:label="Layer 1"
     inkscape:groupmode="layer"
     id="layer1"
     transform="translate(4.3733641,-127.21437)">
    <g
       aria-label="BANK SYARIAH
INDONESIA"
       transform="scale(1.0050871,0.99493864)"
       id="text1001"
       style="font-weight:500;font-size:10.4035px;line-height:1;font-family:Lato;-inkscape-font-specification:'Lato Medium';text-align:center;letter-spacing:0.145654px;word-spacing:0px;text-anchor:middle;fill:#00a39d;fill-opacity:1;stroke-width:0.108371">
      <path
         d="m 59.490226,154.23564 q 0.431745,0 0.74385,-0.0988 0.312105,-0.0988 0.509771,-0.27569 0.202869,-0.18206 0.2965,-0.42655 0.09363,-0.24968 0.09363,-0.54618 0,-0.57739 -0.410939,-0.91031 -0.410938,-0.33811 -1.232814,-0.33811 h -1.612543 v 2.59567 z m -1.612543,-5.85717 v 2.54366 h 1.331648 q 0.426544,0 0.738649,-0.0936 0.317306,-0.0936 0.520175,-0.26009 0.20807,-0.16646 0.306903,-0.40054 0.09883,-0.23928 0.09883,-0.52017 0,-0.66062 -0.395333,-0.96232 -0.395333,-0.30691 -1.227613,-0.30691 z m 1.373262,-0.79586 q 0.686631,0 1.180797,0.13524 0.499368,0.13525 0.816675,0.38493 0.322509,0.24968 0.473359,0.61381 0.150851,0.35892 0.150851,0.81147 0,0.27569 -0.08843,0.53058 -0.08323,0.24968 -0.254885,0.46816 -0.171658,0.21847 -0.436947,0.39533 -0.260088,0.17166 -0.613807,0.28089 0.821877,0.15606 1.232815,0.5878 0.41614,0.42654 0.41614,1.12358 0,0.47336 -0.17686,0.86349 -0.171657,0.39013 -0.509771,0.67102 -0.332912,0.2809 -0.821877,0.43695 -0.488964,0.15085 -1.113174,0.15085 h -2.632085 v -7.4541 z"
         style="font-style:normal;font-variant:normal;font-weight:normal;font-stretch:normal;font-family:Lato;-inkscape-font-specification:Lato;text-align:start;text-anchor:start;fill:#00a39d;fill-opacity:1;stroke-width:0.108371"
         id="path1048" />
      <path
         d="m 67.599753,152.26938 -1.170394,-3.03262 q -0.05202,-0.13524 -0.109237,-0.3121 -0.05722,-0.18206 -0.109236,-0.38493 -0.109237,0.42134 -0.223676,0.70223 l -1.170393,3.02742 z m 2.101507,2.76733 h -0.780263 q -0.135245,0 -0.218473,-0.0676 -0.08323,-0.0676 -0.124842,-0.17166 l -0.697035,-1.7998 h -3.344725 l -0.697034,1.7998 q -0.03121,0.0936 -0.119641,0.16646 -0.08843,0.0728 -0.218473,0.0728 h -0.780262 l 2.980602,-7.4541 h 1.019543 z"
         style="font-style:normal;font-variant:normal;font-weight:normal;font-stretch:normal;font-family:Lato;-inkscape-font-specification:Lato;text-align:start;text-anchor:start;fill:#00a39d;fill-opacity:1;stroke-width:0.108371"
         id="path1050" />
      <path
         d="m 76.869257,147.58261 v 7.4541 h -0.50457 q -0.11964,0 -0.202868,-0.0416 -0.07803,-0.0416 -0.156053,-0.14045 l -4.31225,-5.61789 q 0.0104,0.13005 0.0156,0.25489 0.0052,0.12484 0.0052,0.23408 v 5.31098 h -0.884298 v -7.4541 H 71.3502 q 0.06762,0 0.114439,0.0104 0.04682,0.005 0.08323,0.026 0.03641,0.0156 0.07282,0.052 0.03641,0.0312 0.07803,0.0832 l 4.31225,5.61269 q -0.0104,-0.13524 -0.02081,-0.26009 -0.0052,-0.13004 -0.0052,-0.24448 v -5.27977 z"
         style="font-style:normal;font-variant:normal;font-weight:normal;font-stretch:normal;font-family:Lato;-inkscape-font-specification:Lato;text-align:start;text-anchor:start;fill:#00a39d;fill-opacity:1;stroke-width:0.108371"
         id="path1052" />
      <path
         d="m 79.92267,150.8493 h 0.379728 q 0.197666,0 0.317307,-0.0468 0.11964,-0.052 0.218473,-0.17166 l 2.481235,-2.80894 q 0.104035,-0.13525 0.218473,-0.18727 0.114439,-0.052 0.280895,-0.052 h 0.853087 l -2.840156,3.20947 q -0.104035,0.12485 -0.202868,0.20807 -0.09363,0.078 -0.202868,0.13005 0.140447,0.0468 0.254885,0.14045 0.114439,0.0884 0.223676,0.23407 l 2.964997,3.53199 H 83.99564 q -0.09883,0 -0.171658,-0.0104 -0.06762,-0.0156 -0.11964,-0.0416 -0.05202,-0.0312 -0.09363,-0.0676 -0.03641,-0.0416 -0.07282,-0.0936 l -2.569664,-2.95979 q -0.104035,-0.13005 -0.223675,-0.18207 -0.119641,-0.0572 -0.364123,-0.0572 H 79.92267 v 3.41235 h -1.003938 v -7.4541 h 1.003938 z"
         style="font-style:normal;font-variant:normal;font-weight:normal;font-stretch:normal;font-family:Lato;-inkscape-font-specification:Lato;text-align:start;text-anchor:start;fill:#00a39d;fill-opacity:1;stroke-width:0.108371"
         id="path1054" />
      <path
         d="m 92.578508,148.7478 q -0.04681,0.078 -0.104035,0.11964 -0.05202,0.0364 -0.130043,0.0364 -0.08843,0 -0.20807,-0.0884 -0.119641,-0.0884 -0.301702,-0.19246 -0.176859,-0.10924 -0.431745,-0.19767 -0.249684,-0.0884 -0.608605,-0.0884 -0.338114,0 -0.598201,0.0936 -0.254886,0.0884 -0.431745,0.24448 -0.171658,0.15606 -0.260088,0.36933 -0.08843,0.20807 -0.08843,0.45255 0,0.3121 0.150851,0.52017 0.156053,0.20287 0.405737,0.34852 0.254885,0.14565 0.572192,0.25489 0.322509,0.10403 0.655421,0.21847 0.338113,0.11444 0.65542,0.26009 0.322509,0.14045 0.572193,0.35892 0.254885,0.21847 0.405736,0.53578 0.156052,0.31731 0.156052,0.78026 0,0.48897 -0.166455,0.92071 -0.166456,0.42654 -0.488965,0.74385 -0.317307,0.31731 -0.785464,0.49937 -0.462956,0.18206 -1.055955,0.18206 -0.728245,0 -1.321245,-0.26009 -0.592999,-0.26529 -1.014341,-0.71264 l 0.291298,-0.47856 q 0.04161,-0.0572 0.09883,-0.0936 0.06242,-0.0416 0.135246,-0.0416 0.06762,0 0.15085,0.0572 0.08843,0.052 0.197667,0.13524 0.109237,0.0832 0.249684,0.18206 0.140447,0.0988 0.317307,0.18206 0.182061,0.0832 0.410938,0.14045 0.228877,0.052 0.514973,0.052 0.358921,0 0.639815,-0.0988 0.280895,-0.0988 0.47336,-0.2757 0.197666,-0.18206 0.301701,-0.43174 0.104035,-0.24969 0.104035,-0.55659 0,-0.33811 -0.156052,-0.55139 -0.150851,-0.21847 -0.400535,-0.36412 -0.249684,-0.14565 -0.572193,-0.24448 -0.322508,-0.10403 -0.65542,-0.20807 -0.332912,-0.10924 -0.655421,-0.24968 -0.322508,-0.14045 -0.572192,-0.36413 -0.249684,-0.22367 -0.405737,-0.55658 -0.15085,-0.33812 -0.15085,-0.83228 0,-0.39534 0.15085,-0.76466 0.156053,-0.36932 0.447351,-0.65542 0.2965,-0.2861 0.723043,-0.45776 0.431745,-0.17165 0.988333,-0.17165 0.62421,0 1.133981,0.19766 0.514973,0.19767 0.905105,0.5722 z"
         style="font-style:normal;font-variant:normal;font-weight:normal;font-stretch:normal;font-family:Lato;-inkscape-font-specification:Lato;text-align:start;text-anchor:start;fill:#00a39d;fill-opacity:1;stroke-width:0.108371"
         id="path1056" />
      <path
         d="m 97.202847,152.06651 v 2.9702 h -1.00914 v -2.9702 l -2.730919,-4.4839 h 0.884298 q 0.135245,0 0.213272,0.0676 0.07803,0.0624 0.135245,0.16645 l 1.706174,2.89738 q 0.09363,0.18206 0.171658,0.34331 0.07803,0.15606 0.135245,0.31731 0.05722,-0.16125 0.130044,-0.31731 0.07282,-0.16125 0.161254,-0.34331 l 1.700972,-2.89738 q 0.04682,-0.0884 0.130044,-0.16125 0.08323,-0.0728 0.213272,-0.0728 h 0.889499 z"
         style="font-style:normal;font-variant:normal;font-weight:normal;font-stretch:normal;font-family:Lato;-inkscape-font-specification:Lato;text-align:start;text-anchor:start;fill:#00a39d;fill-opacity:1;stroke-width:0.108371"
         id="path1058" />
      <path
         d="m 104.272,152.26938 -1.1704,-3.03262 q -0.052,-0.13524 -0.10923,-0.3121 -0.0572,-0.18206 -0.10924,-0.38493 -0.10924,0.42134 -0.22368,0.70223 l -1.17039,3.02742 z m 2.1015,2.76733 h -0.78026 q -0.13524,0 -0.21847,-0.0676 -0.0832,-0.0676 -0.12484,-0.17166 l -0.69704,-1.7998 h -3.34472 l -0.69704,1.7998 q -0.0312,0.0936 -0.11964,0.16646 -0.0884,0.0728 -0.21847,0.0728 h -0.780264 l 2.980604,-7.4541 h 1.01954 z"
         style="font-style:normal;font-variant:normal;font-weight:normal;font-stretch:normal;font-family:Lato;-inkscape-font-specification:Lato;text-align:start;text-anchor:start;fill:#00a39d;fill-opacity:1;stroke-width:0.108371"
         id="path1060" />
      <path
         d="m 109.56737,151.19262 q 0.43694,0 0.76985,-0.10404 0.33812,-0.10923 0.56179,-0.3017 0.22888,-0.19766 0.34332,-0.46815 0.11444,-0.2705 0.11444,-0.59821 0,-0.66582 -0.43695,-1.00393 -0.43695,-0.33812 -1.31084,-0.33812 h -1.10277 v 2.81415 z m 3.44355,3.84409 h -0.8947 q -0.27569,0 -0.40573,-0.21327 l -1.93505,-2.66329 q -0.0884,-0.12485 -0.19247,-0.17686 -0.0988,-0.0572 -0.3121,-0.0572 h -0.76466 v 3.11064 h -1.00394 v -7.4541 h 2.10671 q 0.70744,0 1.22241,0.14564 0.51497,0.14045 0.84789,0.41094 0.33811,0.27049 0.49936,0.65542 0.16126,0.37973 0.16126,0.85309 0,0.39533 -0.12484,0.73865 -0.12485,0.34331 -0.36413,0.61901 -0.23408,0.27049 -0.57739,0.46295 -0.33811,0.19247 -0.76986,0.2913 0.19246,0.10924 0.33291,0.31731 z"
         style="font-style:normal;font-variant:normal;font-weight:normal;font-stretch:normal;font-family:Lato;-inkscape-font-specification:Lato;text-align:start;text-anchor:start;fill:#00a39d;fill-opacity:1;stroke-width:0.108371"
         id="path1062" />
      <path
         d="m 115.17485,155.03671 h -1.00914 v -7.4541 h 1.00914 z"
         style="font-style:normal;font-variant:normal;font-weight:normal;font-stretch:normal;font-family:Lato;-inkscape-font-specification:Lato;text-align:start;text-anchor:start;fill:#00a39d;fill-opacity:1;stroke-width:0.108371"
         id="path1064" />
      <path
         d="m 121.18286,152.26938 -1.17039,-3.03262 q -0.052,-0.13524 -0.10924,-0.3121 -0.0572,-0.18206 -0.10923,-0.38493 -0.10924,0.42134 -0.22368,0.70223 l -1.17039,3.02742 z m 2.10151,2.76733 h -0.78026 q -0.13525,0 -0.21848,-0.0676 -0.0832,-0.0676 -0.12484,-0.17166 l -0.69703,-1.7998 h -3.34473 l -0.69703,1.7998 q -0.0312,0.0936 -0.11964,0.16646 -0.0884,0.0728 -0.21848,0.0728 h -0.78026 l 2.9806,-7.4541 h 1.01955 z"
         style="font-style:normal;font-variant:normal;font-weight:normal;font-stretch:normal;font-family:Lato;-inkscape-font-specification:Lato;text-align:start;text-anchor:start;fill:#00a39d;fill-opacity:1;stroke-width:0.108371"
         id="path1066" />
      <path
         d="m 130.45237,147.58261 v 7.4541 h -1.00914 v -3.39154 h -4.02095 v 3.39154 h -1.00914 v -7.4541 h 1.00914 v 3.32391 h 4.02095 v -3.32391 z"
         style="font-style:normal;font-variant:normal;font-weight:normal;font-stretch:normal;font-family:Lato;-inkscape-font-specification:Lato;text-align:start;text-anchor:start;fill:#00a39d;fill-opacity:1;stroke-width:0.108371"
         id="path1068" />
      <path
         d="m 57.882885,165.44021 h -1.009139 v -7.45411 h 1.009139 z"
         style="font-style:normal;font-variant:normal;font-weight:normal;font-stretch:normal;font-family:Lato;-inkscape-font-specification:Lato;text-align:start;text-anchor:start;fill:#00a39d;fill-opacity:1;stroke-width:0.108371"
         id="path1070" />
      <path
         d="m 65.971598,157.9861 v 7.45411 h -0.504569 q -0.119641,0 -0.202869,-0.0416 -0.07803,-0.0416 -0.156052,-0.14045 l -4.312251,-5.61789 q 0.0104,0.13004 0.01561,0.25489 0.0052,0.12484 0.0052,0.23408 v 5.31098 h -0.884297 v -7.45411 h 0.520175 q 0.06762,0 0.114438,0.0104 0.04682,0.005 0.08323,0.026 0.03641,0.0156 0.07283,0.052 0.03641,0.0312 0.07803,0.0832 l 4.312251,5.61269 q -0.0104,-0.13524 -0.02081,-0.26009 -0.0052,-0.13004 -0.0052,-0.24448 v -5.27978 z"
         style="font-style:normal;font-variant:normal;font-weight:normal;font-stretch:normal;font-family:Lato;-inkscape-font-specification:Lato;text-align:start;text-anchor:start;fill:#00a39d;fill-opacity:1;stroke-width:0.108371"
         id="path1072" />
      <path
         d="m 74.481648,161.71576 q 0,0.83748 -0.265289,1.52411 -0.265289,0.68663 -0.749052,1.1756 -0.483763,0.48896 -1.165192,0.75945 -0.676227,0.26529 -1.498104,0.26529 h -2.782936 v -7.45411 h 2.782936 q 0.821877,0 1.498104,0.2705 0.681429,0.26529 1.165192,0.75945 0.483763,0.48897 0.749052,1.1756 0.265289,0.68663 0.265289,1.52411 z m -1.035148,0 q 0,-0.68663 -0.187263,-1.22761 -0.187263,-0.54099 -0.530578,-0.91551 -0.343316,-0.37453 -0.83228,-0.57219 -0.488965,-0.19767 -1.092368,-0.19767 h -1.773797 v 5.82076 h 1.773797 q 0.603403,0 1.092368,-0.19767 0.488964,-0.19767 0.83228,-0.56699 0.343315,-0.37453 0.530578,-0.91551 0.187263,-0.54098 0.187263,-1.22761 z"
         style="font-style:normal;font-variant:normal;font-weight:normal;font-stretch:normal;font-family:Lato;-inkscape-font-specification:Lato;text-align:start;text-anchor:start;fill:#00a39d;fill-opacity:1;stroke-width:0.108371"
         id="path1074" />
      <path
         d="m 82.965706,161.71576 q 0,0.83748 -0.265289,1.53972 -0.26529,0.69703 -0.749052,1.2016 -0.483763,0.50457 -1.165192,0.78547 -0.676228,0.27569 -1.498104,0.27569 -0.821877,0 -1.498104,-0.27569 -0.676228,-0.2809 -1.15999,-0.78547 -0.483763,-0.50457 -0.749052,-1.2016 -0.26529,-0.70224 -0.26529,-1.53972 0,-0.83748 0.26529,-1.53452 0.265289,-0.70223 0.749052,-1.2068 0.483762,-0.50977 1.15999,-0.79067 0.676227,-0.28089 1.498104,-0.28089 0.821876,0 1.498104,0.28089 0.681429,0.2809 1.165192,0.79067 0.483762,0.50457 0.749052,1.2068 0.265289,0.69704 0.265289,1.53452 z m -1.035148,0 q 0,-0.68663 -0.187263,-1.23282 -0.187263,-0.54618 -0.530579,-0.92071 -0.343315,-0.37972 -0.83228,-0.58259 -0.488964,-0.20287 -1.092367,-0.20287 -0.598201,0 -1.087166,0.20287 -0.488964,0.20287 -0.837482,0.58259 -0.343315,0.37453 -0.530578,0.92071 -0.187263,0.54619 -0.187263,1.23282 0,0.68663 0.187263,1.23281 0.187263,0.54099 0.530578,0.92071 0.348518,0.37453 0.837482,0.5774 0.488965,0.19766 1.087166,0.19766 0.603403,0 1.092367,-0.19766 0.488965,-0.20287 0.83228,-0.5774 0.343316,-0.37972 0.530579,-0.92071 0.187263,-0.54618 0.187263,-1.23281 z"
         style="font-style:normal;font-variant:normal;font-weight:normal;font-stretch:normal;font-family:Lato;-inkscape-font-specification:Lato;text-align:start;text-anchor:start;fill:#00a39d;fill-opacity:1;stroke-width:0.108371"
         id="path1076" />
      <path
         d="m 90.591467,157.9861 v 7.45411 h -0.50457 q -0.11964,0 -0.202868,-0.0416 -0.07803,-0.0416 -0.156053,-0.14045 l -4.31225,-5.61789 q 0.0104,0.13004 0.0156,0.25489 0.0052,0.12484 0.0052,0.23408 v 5.31098 h -0.884298 v -7.45411 h 0.520175 q 0.06762,0 0.114439,0.0104 0.04682,0.005 0.08323,0.026 0.03641,0.0156 0.07282,0.052 0.03641,0.0312 0.07803,0.0832 l 4.31225,5.61269 q -0.0104,-0.13524 -0.02081,-0.26009 -0.0052,-0.13004 -0.0052,-0.24448 v -5.27978 z"
         style="font-style:normal;font-variant:normal;font-weight:normal;font-stretch:normal;font-family:Lato;-inkscape-font-specification:Lato;text-align:start;text-anchor:start;fill:#00a39d;fill-opacity:1;stroke-width:0.108371"
         id="path1078" />
      <path
         d="m 97.239289,164.61834 -0.0052,0.82187 h -4.593145 v -7.45411 h 4.593145 v 0.82188 h -3.584005 v 2.47603 h 2.902576 v 0.79067 h -2.902576 v 2.54366 z"
         style="font-style:normal;font-variant:normal;font-weight:normal;font-stretch:normal;font-family:Lato;-inkscape-font-specification:Lato;text-align:start;text-anchor:start;fill:#00a39d;fill-opacity:1;stroke-width:0.108371"
         id="path1080" />
      <path
         d="m 102.60749,159.1513 q -0.0468,0.078 -0.10403,0.11964 -0.052,0.0364 -0.13005,0.0364 -0.0884,0 -0.20807,-0.0884 -0.11964,-0.0884 -0.3017,-0.19247 -0.17686,-0.10923 -0.43174,-0.19766 -0.24969,-0.0884 -0.60861,-0.0884 -0.33811,0 -0.5982,0.0936 -0.254885,0.0884 -0.431744,0.24448 -0.171658,0.15605 -0.260088,0.36933 -0.08843,0.20807 -0.08843,0.45255 0,0.3121 0.150851,0.52017 0.156053,0.20287 0.405741,0.34852 0.25488,0.14565 0.57219,0.25489 0.32251,0.10403 0.65542,0.21847 0.33811,0.11444 0.65542,0.26009 0.32251,0.14044 0.57219,0.35892 0.25489,0.21847 0.40574,0.53578 0.15605,0.31731 0.15605,0.78026 0,0.48897 -0.16646,0.92071 -0.16645,0.42654 -0.48896,0.74385 -0.31731,0.31731 -0.78546,0.49937 -0.46296,0.18206 -1.05596,0.18206 -0.728244,0 -1.321244,-0.26009 -0.592999,-0.26529 -1.014341,-0.71264 l 0.291298,-0.47856 q 0.04161,-0.0572 0.09883,-0.0936 0.06242,-0.0416 0.135246,-0.0416 0.06762,0 0.15085,0.0572 0.08843,0.052 0.197667,0.13524 0.109237,0.0832 0.249684,0.18206 0.140447,0.0988 0.317307,0.18206 0.182061,0.0832 0.41094,0.14045 0.22887,0.052 0.51497,0.052 0.35892,0 0.63982,-0.0988 0.28089,-0.0988 0.47336,-0.2757 0.19766,-0.18206 0.3017,-0.43174 0.10403,-0.24969 0.10403,-0.55659 0,-0.33811 -0.15605,-0.55139 -0.15085,-0.21847 -0.40054,-0.36412 -0.24968,-0.14565 -0.57219,-0.24448 -0.32251,-0.10404 -0.65542,-0.20807 -0.33291,-0.10924 -0.655419,-0.24968 -0.322508,-0.14045 -0.572192,-0.36413 -0.249684,-0.22367 -0.405737,-0.55658 -0.15085,-0.33812 -0.15085,-0.83228 0,-0.39534 0.15085,-0.76466 0.156053,-0.36933 0.447351,-0.65542 0.2965,-0.2861 0.723043,-0.45776 0.431744,-0.17165 0.988334,-0.17165 0.62421,0 1.13398,0.19766 0.51497,0.19767 0.9051,0.5722 z"
         style="font-style:normal;font-variant:normal;font-weight:normal;font-stretch:normal;font-family:Lato;-inkscape-font-specification:Lato;text-align:start;text-anchor:start;fill:#00a39d;fill-opacity:1;stroke-width:0.108371"
         id="path1082" />
      <path
         d="m 105.5933,165.44021 h -1.00914 v -7.45411 h 1.00914 z"
         style="font-style:normal;font-variant:normal;font-weight:normal;font-stretch:normal;font-family:Lato;-inkscape-font-specification:Lato;text-align:start;text-anchor:start;fill:#00a39d;fill-opacity:1;stroke-width:0.108371"
         id="path1084" />
      <path
         d="m 111.60131,162.67288 -1.17039,-3.03262 q -0.052,-0.13524 -0.10924,-0.3121 -0.0572,-0.18207 -0.10923,-0.38493 -0.10924,0.42134 -0.22368,0.70223 l -1.17039,3.02742 z m 2.10151,2.76733 h -0.78026 q -0.13525,0 -0.21848,-0.0676 -0.0832,-0.0676 -0.12484,-0.17166 l -0.69703,-1.7998 h -3.34473 l -0.69703,1.7998 q -0.0312,0.0936 -0.11964,0.16646 -0.0884,0.0728 -0.21848,0.0728 h -0.78026 l 2.9806,-7.45411 h 1.01955 z"
         style="font-style:normal;font-variant:normal;font-weight:normal;font-stretch:normal;font-family:Lato;-inkscape-font-specification:Lato;text-align:start;text-anchor:start;fill:#00a39d;fill-opacity:1;stroke-width:0.108371"
         id="path1086" />
    </g>
    <path
       d="m 6.1748504,159.89366 q 1.2269623,0 1.996103,-0.31475 0.7874535,-0.31471 1.2269625,-0.81459 0.4395088,-0.49987 0.6043251,-1.12932 0.164815,-0.62948 0.164815,-1.27746 0,-0.74054 -0.2014411,-1.33297 Q 9.7824862,154.43213 9.3063515,154.0248 8.8485297,153.61751 8.079389,153.39536 7.3102485,153.17321 6.1382246,153.17321 H 1.8163867 v 6.72045 z M 1.8163867,142.32419 v 6.66492 h 3.2230655 q 1.0255209,0 1.8496002,-0.14812 0.8240792,-0.14812 1.3917783,-0.51838 0.5860118,-0.37026 0.8790179,-1.01826 0.3113189,-0.64797 0.3113189,-1.6292 0,-0.9627 -0.2380675,-1.59217 -0.2380673,-0.64796 -0.7325149,-1.03676 -0.4944476,-0.3888 -1.2635882,-0.55541 -0.7508277,-0.16662 -1.7946614,-0.16662 z m 3.6259488,-4.68395 q 2.7652437,0 4.7064085,0.51838 1.941164,0.51838 3.168126,1.46259 1.226962,0.94418 1.776349,2.29568 0.5677,1.35149 0.5677,3.01772 0,0.90717 -0.256382,1.7588 -0.25638,0.8331 -0.805765,1.57367 -0.549387,0.72203 -1.410091,1.33296 -0.860706,0.61097 -2.069354,1.0553 2.637051,0.64797 3.90064,2.09203 1.263589,1.44407 1.263589,3.73977 0,1.72178 -0.659264,3.20286 -0.659264,1.48109 -1.941165,2.59192 -1.263587,1.09231 -3.1315,1.72176 -1.8679131,0.61096 -4.2668995,0.61096 H -4.3733641 v -26.9744 z"
       style="font-style:normal;font-variant:normal;font-weight:900;font-stretch:normal;font-size:25.4px;line-height:1;font-family:Lato;-inkscape-font-specification:'Lato Heavy';text-align:center;letter-spacing:0.283104px;word-spacing:0px;text-anchor:middle;fill:#00a39d;fill-opacity:1;stroke-width:0.383604"
       id="path851" />
    <path
       d="m 35.297602,143.14197 q -0.274693,0.44379 -0.586013,0.66572 -0.293004,0.22191 -0.769139,0.22191 -0.421197,0 -0.915645,-0.25891 -0.476135,-0.27738 -1.098773,-0.61024 -0.604324,-0.33288 -1.391778,-0.59176 -0.787453,-0.27739 -1.79466,-0.27739 -1.739724,0 -2.600429,0.75819 -0.842391,0.7397 -0.842391,2.0157 0,0.81366 0.512761,1.34993 0.51276,0.53629 1.336839,0.92463 0.842392,0.38835 1.904539,0.72123 1.08046,0.31435 2.197542,0.7212 1.117086,0.38834 2.179234,0.92462 1.08046,0.53629 1.904538,1.36845 0.842392,0.83216 1.355153,2.03417 0.51276,1.18354 0.51276,2.86634 0,1.86775 -0.64095,3.49508 -0.64095,1.62734 -1.867914,2.84785 -1.208647,1.20201 -3.00331,1.90473 -1.776349,0.68422 -4.047144,0.68422 -1.245277,0 -2.54549,-0.2589 -1.281902,-0.25888 -2.490551,-0.7212 -1.208649,-0.48081 -2.270795,-1.12805 -1.062149,-0.64723 -1.849603,-1.4424 l 1.831289,-2.92185 q 0.219755,-0.31434 0.567699,-0.51777 0.366257,-0.22191 0.787454,-0.22191 0.549386,0 1.098772,0.35137 0.567699,0.35135 1.263589,0.77668 0.714201,0.42532 1.629844,0.77667 0.915645,0.35137 2.160919,0.35137 1.684785,0 2.618741,-0.73969 0.933957,-0.75821 0.933957,-2.38554 0,-0.94313 -0.51276,-1.53488 -0.51276,-0.59177 -1.355153,-0.98011 -0.824078,-0.38834 -1.886225,-0.68422 -1.062147,-0.2959 -2.179232,-0.64724 -1.117086,-0.36986 -2.179233,-0.88764 -1.062146,-0.53628 -1.904539,-1.38693 -0.824078,-0.86915 -1.336838,-2.14514 -0.512762,-1.29448 -0.512762,-3.18071 0,-1.51638 0.604326,-2.95882 0.604324,-1.4424 1.776348,-2.57044 1.172023,-1.12806 2.87512,-1.79378 1.703098,-0.68422 3.900644,-0.68422 1.226961,0 2.380673,0.20341 1.172024,0.18492 2.215857,0.57328 1.043834,0.36984 1.941166,0.90614 0.915642,0.51778 1.629843,1.18351 z"
       style="font-style:normal;font-variant:normal;font-weight:900;font-stretch:normal;font-size:25.4px;line-height:1;font-family:Lato;-inkscape-font-specification:'Lato Heavy';text-align:center;letter-spacing:0.283104px;word-spacing:0px;text-anchor:middle;fill:#00a39d;fill-opacity:1;stroke-width:0.383385"
       id="path853" />
    <path
       id="path915"
       style="fill:#f8ad3c;fill-opacity:1;fill-rule:evenodd;stroke-width:0.127275"
       inkscape:transform-center-y="0.20342417"
       d="m 57.420843,136.52454 c -4.752649,-0.46294 -6.423707,2.15396 -7.356025,3.44833 -1.189035,-5.1747 -3.199705,-4.76667 -5.350954,-6.07023 3.109143,-1.80464 3.97875,-4.61031 3.893204,-6.68827 3.045425,2.23285 5.16891,1.99326 7.798725,1.26923 -1.308569,3.90489 -0.482348,5.00706 1.01505,8.04094 z"
       sodipodi:nodetypes="cccccc"
       inkscape:transform-center-x="0.37152111" />
    <path
       d="m 47.480964,164.62585 h -6.43673 V 137.0409 c 4.027874,0.54572 6.443071,3.87711 6.43673,7.40312 z"
       style="font-style:normal;font-variant:normal;font-weight:900;font-stretch:normal;font-size:25.4px;line-height:1;font-family:Lato;-inkscape-font-specification:'Lato Heavy';text-align:center;letter-spacing:0.283104px;word-spacing:0px;text-anchor:middle;fill:#00a39d;fill-opacity:1;stroke-width:0.381518"
       id="path855"
       sodipodi:nodetypes="ccccc" />
  </g>
</svg>
