<svg id="SvgjsSvg1011" width="288" height="288" xmlns="http://www.w3.org/2000/svg" version="1.1" xmlns:xlink="http://www.w3.org/1999/xlink" xmlns:svgjs="http://svgjs.com/svgjs"><defs id="SvgjsDefs1012"></defs><g id="SvgjsG1013"><svg xmlns="http://www.w3.org/2000/svg" fill="currentColor" style="width:1em;height:1em;vertical-align:middle" class="svg-icon" overflow="hidden" viewBox="0 0 1024 1024" width="288" height="288"><path d="M640 170.666667C828.586667 170.666667 981.333333 323.413333 981.333333 512 981.333333 700.586667 828.586667 853.333333 640 853.333333 451.413333 853.333333 298.666667 700.586667 298.666667 512 298.666667 323.413333 451.413333 170.666667 640 170.666667M640 256C498.773333 256 384 370.773333 384 512 384 653.226667 498.773333 768 640 768 781.226667 768 896 653.226667 896 512 896 370.773333 781.226667 256 640 256M597.333333 341.333333 661.333333 341.333333 661.333333 502.613333 760.746667 602.026667 715.52 647.253333 597.333333 529.066667 597.333333 341.333333M85.333333 768C61.866667 768 42.666667 748.8 42.666667 725.333333 42.666667 701.866667 61.866667 682.666667 85.333333 682.666667L248.746667 682.666667C261.973333 712.96 279.04 741.546667 298.666667 768L85.333333 768M128 554.666667C104.533333 554.666667 85.333333 535.466667 85.333333 512 85.333333 488.533333 104.533333 469.333333 128 469.333333L215.466667 469.333333 213.333333 512 215.466667 554.666667 128 554.666667M170.666667 341.333333C147.2 341.333333 128 322.133333 128 298.666667 128 275.2 147.2 256 170.666667 256L298.666667 256C279.04 282.453333 261.973333 311.04 248.746667 341.333333L170.666667 341.333333Z" fill="#23aacb" class="color000 svgShape"></path></svg></g></svg>