<?xml version="1.0" encoding="UTF-8"?>
<!DOCTYPE svg PUBLIC "-//W3C//DTD SVG 1.1//EN" "http://www.w3.org/Graphics/SVG/1.1/DTD/svg11.dtd">
<!-- Creator: CorelDRAW 2019 (64-Bit) -->
<svg xmlns="http://www.w3.org/2000/svg" xml:space="preserve" width="94.8972mm" height="41.275mm" version="1.1" style="shape-rendering:geometricPrecision; text-rendering:geometricPrecision; image-rendering:optimizeQuality; fill-rule:evenodd; clip-rule:evenodd"
viewBox="0 0 9489.72 4127.5"
 xmlns:xlink="http://www.w3.org/1999/xlink">
 <defs>
  <style type="text/css">
   <![CDATA[
    .fil1 {fill:#FEFEFE;fill-rule:nonzero}
    .fil0 {fill:#E84D2F;fill-rule:nonzero}
   ]]>
  </style>
 </defs>
 <g id="Layer_x0020_1">
  <metadata id="CorelCorpID_0Corel-Layer"/>
  <path class="fil0" d="M2965.76 -33.9l-2840.23 378.7c0,0 -125.53,15.07 -125.53,165.67l0 8.8 0 12.19 0 15.48 0 18.65 0 21.71 0 24.65 0 27.48 0 30.2 0 32.81 0 35.29 0 37.68 0 39.94 0 42.09 0 44.14 0 46.06 0 47.87 0 49.57 0 51.16 0 52.64 0 53.99 0 55.24 0 56.37 0 57.4 0 58.3 0 59.1 0 59.78 0 60.35 0 60.81 0 61.14 0 61.38 0 61.49 0 61.49 0 61.39 0 61.16 0 60.82 0 60.38 0 59.81 0 59.13 0 58.35 0 57.44 0 56.43 0 55.3 0 54.06 0 52.7 0 51.24 0 49.65 0 47.96 0 46.15 0 44.24 0 42.19 0 40.06 0 37.79 0 35.41 0 32.94 0 30.33 0 27.62 0 24.79 0 21.86 0 18.8 0 15.64 0 12.36 0 8.97 0 5.46 0 1.85c0,0 16.5,315.58 377.98,315.58 361.49,0 3218.94,0 3218.94,0 0,0 286.92,-68.84 286.92,-355.74 0,-286.89 0,-2226.29 0,-2226.29 0,0 5.71,-315.6 -372.98,-315.6 -378.7,0 -3104.19,0 -3104.19,0 0,0 -120.49,-20.08 -151.33,-147.02 -9.33,-50.2 10.76,-55.24 63.83,-55.24 53.07,0 2850.28,0 2850.28,0l0 -306.96c0,0 -10.02,-164.95 -203.69,-150.63z"/>
  <path class="fil1" d="M1999.53 3065.86c-235.58,0 -408.99,-95.95 -664.74,-349.1 -45.61,-45.13 -45.98,-118.68 -0.83,-164.3 45.14,-45.6 118.68,-45.99 164.31,-0.81 269.27,266.42 394.37,332.61 609.45,274.25 125.02,-33.9 237.23,-193.34 243.79,-376.09 5.09,-142.23 -95.13,-234.89 -297.92,-275.46 -364,-72.81 -578.8,-212.05 -638.43,-413.87 -48.06,-162.56 14.93,-343.95 172.78,-497.67l6.53 -5.89c339.43,-283.72 733.44,-72.33 894.36,79.12 46.73,43.99 48.97,117.5 4.96,164.23 -43.9,46.72 -117.24,48.94 -163.98,5.21 -13.64,-12.68 -318.51,-289.71 -582.93,-73.04 -90.39,89.34 -131.06,187.11 -108.88,262.19 32.35,109.39 196.11,198.83 461.18,251.86 450.64,90.14 489,387.82 484.57,511.65 -9.67,269.58 -235.2,571.57 -446.88,598.33 -48.5,6.15 -93.97,9.39 -137.34,9.39z"/>
  <path class="fil0" d="M5078.48 610.11c-45.72,-28.03 -100.26,-53.07 -165.17,-70.78 -119.45,-33.91 -206.48,-78.18 -247.79,-134.2 -36.86,-48.68 -36.86,-112.08 7.37,-193.22 25.09,-48.68 85.55,-79.65 163.73,-85.55 81.1,-5.89 179.92,13.27 283.17,66.36 25.09,13.3 57.54,2.97 70.81,-23.6 13.26,-25.05 2.96,-57.5 -23.6,-70.77 -120.94,-61.94 -240.42,-85.54 -339.24,-78.17 -115.04,8.85 -205,59.02 -249.23,140.12 -66.36,122.42 -61.95,222.68 0,306.74 57.5,75.21 162.24,132.76 305.29,172.58 56.02,16.22 103.22,36.87 140.09,58.99 56.05,33.92 92.92,73.74 110.63,116.51 17.71,39.83 19.19,84.06 7.37,126.84 -5.89,20.64 -16.23,41.3 -28.01,61.95 0,2.94 -2.96,5.89 -5.89,10.31 -42.79,63.43 -112.11,95.87 -196.18,95.87 -92.89,0 -206.48,-36.86 -327.41,-110.6 -17.68,-10.33 -33.9,-20.66 -48.65,-30.98 -25.08,-16.22 -57.54,-8.85 -73.77,14.75 -16.22,25.06 -8.85,57.52 14.75,73.74 19.19,13.27 36.87,23.6 50.17,35.4 138.6,84.06 269.87,125.34 381.95,125.34 120.97,0 221.26,-47.17 284.69,-141.56 1.45,-2.95 4.41,-8.86 8.82,-14.75 17.71,-28.02 30.97,-59 39.83,-88.51 19.19,-64.89 16.23,-134.2 -11.79,-197.62 -26.56,-61.94 -76.69,-119.46 -151.94,-165.19z"/>
  <path class="fil0" d="M5891.14 493.61c-54.57,-14.75 -118,-13.27 -182.88,5.89 -61.56,18.17 -123.75,52.21 -182.88,103.53l0 -532.72c0,-28.01 -23.6,-50.13 -53.09,-50.13 -29.53,0 -53.13,22.12 -53.13,50.13l0 1095.83c0,28.01 23.6,50.14 53.13,50.14 29.49,0 53.09,-22.13 53.09,-50.14l0 -410.13c0.95,-0.97 2.05,-1.78 2.93,-2.83 66.39,-81.11 140.12,-131.26 210.89,-153.38 45.72,-13.27 88.51,-14.75 125.38,-4.42 35.42,10.31 63.43,29.49 84.06,57.51 20.68,29.49 32.46,69.31 32.46,119.46l0 392.31c0,29.51 23.6,53.08 53.09,53.08 29.53,0 53.1,-23.57 53.1,-53.08l0 -392.31c0,-72.27 -19.16,-132.73 -53.1,-179.93 -35.38,-50.17 -85.55,-82.59 -143.05,-98.81z"/>
  <path class="fil0" d="M6793.72 1036.36c-48.64,47.19 -113.56,76.68 -185.84,76.68 -72.21,0 -138.61,-29.49 -185.81,-76.68 -47.2,-47.2 -76.69,-113.59 -76.69,-185.83 0,-72.27 29.49,-138.64 76.69,-185.85 48.69,-47.2 113.6,-76.67 185.81,-76.67 72.28,0 138.68,29.47 185.84,76.67 47.21,47.21 76.73,113.58 76.73,185.85 0,72.24 -29.52,138.63 -76.73,185.83zm-185.84 -553.05c-100.26,0 -193.18,41.27 -259.54,107.63 -66.39,66.37 -107.67,157.8 -107.67,259.59 0,101.76 41.28,193.19 107.67,259.56 66.36,66.37 157.83,107.65 259.54,107.65 101.78,0 193.25,-41.28 259.61,-107.65 66.36,-66.37 107.67,-157.8 107.67,-259.56 0,-101.79 -41.31,-193.22 -107.67,-259.59 -66.36,-66.36 -157.83,-107.63 -259.61,-107.63z"/>
  <path class="fil0" d="M7687.49 1036.36c-48.65,47.19 -113.56,76.68 -185.85,76.68 -72.21,0 -138.6,-29.49 -185.8,-76.68 -47.21,-47.2 -76.7,-113.59 -76.7,-185.83 0,-72.27 29.49,-138.64 76.7,-185.85 48.68,-47.2 113.59,-76.67 185.8,-76.67 72.29,0 138.64,29.47 185.85,76.67 47.2,47.21 76.73,113.58 76.73,185.85 0,72.24 -29.53,138.63 -76.73,185.83zm-184.37 -553.05c-101.74,0 -193.18,41.27 -259.53,107.63 -4.45,2.96 -7.38,7.37 -11.82,11.81l0 -66.39c0,-29.49 -23.6,-53.05 -53.09,-53.05 -29.5,0 -53.1,23.56 -53.1,53.05l0 1044.21c0,29.49 23.6,53.09 53.1,53.09 29.49,0 53.09,-23.6 53.09,-53.09l0 -482.29c4.44,2.95 7.37,7.37 11.82,11.81 66.35,66.37 157.79,107.65 259.53,107.65 101.78,0 193.22,-41.28 259.61,-107.65 66.36,-66.37 107.67,-157.8 107.67,-259.56 0,-101.79 -41.31,-193.22 -107.67,-259.59 -66.39,-66.36 -157.83,-107.63 -259.61,-107.63z"/>
  <path class="fil0" d="M8140.28 769.4c13.26,-44.25 38.34,-82.59 69.32,-113.56 42.79,-41.29 98.81,-66.38 159.28,-66.38 60.46,0 116.52,25.09 159.28,66.38 30.97,30.97 54.57,69.31 70.8,113.56l-458.68 0zm461.64 -188.76c-60.5,-61.99 -143.08,-97.33 -233.04,-97.33 -89.96,0 -174.03,33.9 -233.01,97.33 -126.86,137.14 -125.38,284.63 -75.25,433.58 22.15,67.84 69.32,116.53 123.9,151.92 54.57,35.4 120.96,53.09 196.14,51.6 73.77,-1.46 156.35,-19.16 244.86,-56.03 26.53,-11.79 39.8,-42.77 28.01,-69.31 -11.78,-26.54 -42.75,-39.83 -69.32,-28.03 -76.69,32.45 -146.01,48.67 -205.03,48.67 -54.54,0 -101.74,-11.81 -138.61,-35.39 -35.38,-23.6 -63.43,-57.53 -82.58,-103.24 -10.34,-29.49 -19.19,-61.94 -23.6,-97.34l488.17 0c26.56,0 113.56,5.89 67.84,-143.06 -17.68,-53.09 -38.35,-103.24 -88.48,-153.37z"/>
  <path class="fil0" d="M8945.53 769.4c13.3,-44.25 38.34,-82.59 69.32,-113.56 42.79,-41.29 98.85,-66.38 159.31,-66.38 60.43,0 116.49,25.09 159.25,66.38 30.97,30.97 54.57,69.31 70.8,113.56l-458.68 0zm561.83 55.24l0 -38.69c-1.82,-14.79 -5.55,-31.96 -11.68,-51.94 -17.71,-53.09 -38.34,-103.24 -88.51,-153.37 -60.46,-61.99 -143.08,-97.33 -233.01,-97.33 -89.96,0 -174.06,33.9 -233.04,97.33 -126.86,137.14 -125.38,284.63 -75.21,433.58 22.11,67.84 69.32,116.53 123.89,151.92 54.58,35.4 120.93,53.09 196.15,51.6 73.73,-1.46 156.31,-19.16 244.82,-56.03 26.57,-11.79 39.83,-42.77 28.01,-69.31 -11.78,-26.54 -42.75,-39.83 -69.32,-28.03 -76.69,32.45 -146.01,48.67 -204.96,48.67 -54.58,0 -101.78,-11.81 -138.68,-35.39 -35.38,-23.6 -63.39,-57.53 -82.58,-103.24 -10.34,-29.49 -19.16,-61.94 -23.6,-97.34l488.17 0c19.31,0 70.56,3.09 79.55,-52.43z"/>
  <path class="fil0" d="M5351.46 2587.06l-551.14 0 0 -800.59 497.38 0c8.64,0 17.04,0.43 25.65,1.4 75.63,8.43 406.5,65.69 406.5,420.4 0,378.79 -378.39,378.79 -378.39,378.79zm-97.29 -1106.17l-763.7 0 0 2042.69 309.85 0 0 -609.66 487.11 0c163.27,0 325.37,-39.33 465.85,-122.58 167.04,-98.94 334.08,-273.22 334.08,-574.56 0,-282.48 -146.83,-461.83 -302.79,-572.67 -154.2,-109.57 -341.21,-163.22 -530.4,-163.22z"/>
  <path class="fil0" d="M6855.35 3242.39c-253.64,0 -459.7,-205.68 -459.7,-459.76 0,-253.7 206.06,-459.34 459.7,-459.34 253.9,0 459.43,205.37 459.71,458.79l0 1.1c-0.28,253.84 -205.81,459.21 -459.71,459.21zm459.71 -1170.49l0 143.71c-125.45,-102.25 -285.4,-163.43 -459.71,-163.43 -402.8,0 -730.85,327.65 -730.85,730.45 0,403.19 328.05,730.86 730.85,730.86 174.31,0 334.26,-61.2 459.71,-163.41l0 163.48 309.88 0 0 -1441.66 -309.88 0z"/>
  <polygon class="fil0" points="7764.22,2052.18 8178.62,2052.18 8664.89,2982.79 9133.98,2052.18 9507.36,2052.18 9507.36,2054.67 8393.78,4127.5 8028.9,4127.5 8454.04,3357.18 "/>
 </g>
</svg>
