<svg id="SvgjsSvg1027" width="288" height="288" xmlns="http://www.w3.org/2000/svg" version="1.1" xmlns:xlink="http://www.w3.org/1999/xlink" xmlns:svgjs="http://svgjs.com/svgjs"><defs id="SvgjsDefs1028"></defs><g id="SvgjsG1029"><svg xmlns="http://www.w3.org/2000/svg" fill="currentColor" style="width:1em;height:1em;vertical-align:middle" class="svg-icon" overflow="hidden" viewBox="0 0 1024 1024" width="288" height="288"><path d="M512 928C282.25 928 96 741.75 96 512S282.25 96 512 96s416 186.25 416 416-186.25 416-416 416z m-32-736c-17.673 0-32 14.327-32 32v416h96c17.673 0 32-14.327 32-32V192h-96z m32 640c35.346 0 64-28.654 64-64 0-35.346-28.654-64-64-64-35.346 0-64 28.654-64 64 0 35.346 28.654 64 64 64z" fill="#23aacb" class="color000 svgShape"></path></svg></g></svg>