<svg id="SvgjsSvg1032" width="288" height="288" xmlns="http://www.w3.org/2000/svg" version="1.1" xmlns:xlink="http://www.w3.org/1999/xlink" xmlns:svgjs="http://svgjs.com/svgjs"><defs id="SvgjsDefs1033"></defs><g id="SvgjsG1034"><svg xmlns="http://www.w3.org/2000/svg" fill="currentColor" style="width:1em;height:1em;vertical-align:middle" class="svg-icon" overflow="hidden" viewBox="0 0 1024 1024" width="288" height="288"><path d="M512 1024C230.4 1024 0 793.6 0 512S230.4 0 512 0s512 230.4 512 512S793.6 1024 512 1024zM512 85.333333C277.333333 85.333333 85.333333 277.333333 85.333333 512s192 426.666667 426.666667 426.666667 426.666667-192 426.666667-426.666667S746.666667 85.333333 512 85.333333z" fill="#23aacb" class="color000 svgShape"></path><path d="M512 554.666667c-81.066667 0-149.333333-51.2-166.4-119.466667C341.333333 426.666667 341.333333 418.133333 341.333333 405.333333 341.333333 324.266667 418.133333 256 512 256s170.666667 68.266667 170.666667 149.333333c0 12.8 0 21.333333-4.266667 29.866667-4.266667 21.333333-29.866667 38.4-51.2 29.866667-21.333333-4.266667-38.4-29.866667-29.866667-51.2 0-4.266667 0-8.533333 0-12.8C597.333333 371.2 558.933333 341.333333 512 341.333333s-85.333333 29.866667-85.333333 64c0 4.266667 0 8.533333 0 12.8 8.533333 29.866667 42.666667 51.2 85.333333 51.2 25.6 0 42.666667 17.066667 42.666667 42.666667S537.6 554.666667 512 554.666667z" fill="#23aacb" class="color000 svgShape"></path><path d="M512 768c-93.866667 0-170.666667-68.266667-170.666667-149.333333 0-12.8 0-21.333333 4.266667-29.866667 4.266667-21.333333 29.866667-38.4 51.2-29.866667 21.333333 4.266667 38.4 29.866667 29.866667 51.2 0 4.266667 0 8.533333 0 12.8 0 34.133333 38.4 64 85.333333 64s85.333333-29.866667 85.333333-64c0-4.266667 0-8.533333 0-12.8-8.533333-29.866667-42.666667-51.2-85.333333-51.2-25.6 0-42.666667-17.066667-42.666667-42.666667s17.066667-42.666667 42.666667-42.666667c81.066667 0 149.333333 51.2 166.4 119.466667C682.666667 597.333333 682.666667 605.866667 682.666667 618.666667 682.666667 699.733333 605.866667 768 512 768z" fill="#23aacb" class="color000 svgShape"></path><path d="M512 853.333333c-25.6 0-42.666667-17.066667-42.666667-42.666667l0-85.333333c0-25.6 17.066667-42.666667 42.666667-42.666667s42.666667 17.066667 42.666667 42.666667l0 85.333333C554.666667 836.266667 537.6 853.333333 512 853.333333zM512 341.333333c-25.6 0-42.666667-17.066667-42.666667-42.666667L469.333333 213.333333c0-25.6 17.066667-42.666667 42.666667-42.666667s42.666667 17.066667 42.666667 42.666667l0 85.333333C554.666667 324.266667 537.6 341.333333 512 341.333333zM640 469.333333c-12.8 0-21.333333-4.266667-29.866667-12.8C601.6 448 597.333333 439.466667 597.333333 426.666667s4.266667-21.333333 12.8-29.866667c17.066667-17.066667 42.666667-17.066667 59.733333 0C678.4 405.333333 682.666667 413.866667 682.666667 426.666667s-4.266667 21.333333-12.8 29.866667C661.333333 465.066667 652.8 469.333333 640 469.333333z" fill="#23aacb" class="color000 svgShape"></path></svg></g></svg>